<svg width="100" height="124" viewBox="0 0 100 124" fill="none" xmlns="http://www.w3.org/2000/svg">
<g clip-path="url(#clip0_238_4632)">
<path d="M43.0547 43.6282C22.344 43.6282 5.55469 60.4175 5.55469 81.1282C5.55469 101.839 22.344 118.628 43.0547 118.628C63.7654 118.628 80.5547 101.839 80.5547 81.1282C80.5547 60.4175 63.7654 43.6282 43.0547 43.6282Z" fill="#11E0F1"/>
<path d="M98.832 -53.2049C55.5493 -53.2049 20.4617 -18.1173 20.4617 25.1654C20.4617 68.4482 55.5493 103.536 98.832 103.536C142.115 103.536 177.202 68.4482 177.202 25.1654C177.202 -18.1173 142.115 -53.2049 98.832 -53.2049Z" fill="#BA4AFF"/>
<path d="M75.4678 99.9941C78.7005 94.452 80.5547 88.0067 80.5547 81.1279C80.5545 60.4174 63.7653 43.6279 43.0547 43.6279C36.1324 43.6279 29.6497 45.5065 24.084 48.7773C31.7759 73.1516 51.059 92.3802 75.4678 99.9941Z" fill="#1F91F5"/>
<path d="M75.4678 99.9941C78.7005 94.452 80.5547 88.0067 80.5547 81.1279C80.5545 60.4174 63.7653 43.6279 43.0547 43.6279C36.1324 43.6279 29.6497 45.5065 24.084 48.7773C31.7759 73.1516 51.059 92.3802 75.4678 99.9941Z" fill="#1D70B8"/>
<path d="M17.0547 90.6277C7.94199 90.6277 0.554689 98.015 0.554689 107.128C0.554689 116.24 7.94199 123.628 17.0547 123.628C26.1674 123.628 33.5547 116.24 33.5547 107.128C33.5547 98.015 26.1674 90.6277 17.0547 90.6277Z" fill="#66F39E"/>
</g>
<path d="M83.4375 28.0234C83.8203 28.4062 83.8203 29.0547 83.4297 29.4453C83.0469 29.8359 82.3906 29.8359 82.0156 29.4531L77.3594 24.7969L72.7031 29.4531C72.3359 29.8203 71.6719 29.8281 71.2812 29.4453C70.8984 29.0625 70.9062 28.3984 71.2734 28.0312L75.9297 23.375L71.2734 18.7109C70.9062 18.3438 70.8984 17.6875 71.2812 17.2969C71.6719 16.9062 72.3359 16.9219 72.7031 17.2891L77.3594 21.9453L82.0156 17.2891C82.3984 16.9062 83.0391 16.9141 83.4297 17.2969C83.8203 17.6875 83.8203 18.3359 83.4375 18.7188L78.7891 23.375L83.4375 28.0234Z" fill="black"/>
<defs>
<clipPath id="clip0_238_4632">
<rect width="100" height="124" fill="white"/>
</clipPath>
</defs>
</svg>
